#N canvas 720 192 1354 762 10;
#X declare -path externals/pdprojectm;
#X declare -lib Gem;
#X obj 33 47 declare -path externals/pdprojectm;
#X obj 37 144 tex_test;
#X msg 36 119 bang;
#X obj 33 17 declare -lib Gem;
#X obj 37 233 tex_gradient;
#X text 33 93 prints "Hello world!" when banged.;
#X text 34 178 generates a texture with a color gradient on it;
#X obj 440 27 cnv 15 100 80 empty empty empty 20 12 0 14 #bcbcbc #404040 0;
#N canvas 605 23 938 810 gemwin 0;
#X obj 132 136 gemwin;
#X obj 123 249 outlet;
#X obj 67 10 inlet;
#X obj 67 41 route create;
#X msg 67 70 set destroy;
#X msg 295 86 set create;
#X msg 198 112 destroy;
#X msg 132 112 create \, 1;
#X connect 2 0 3 0;
#X connect 3 0 4 0;
#X connect 3 0 7 0;
#X connect 3 1 5 0;
#X connect 3 1 6 0;
#X connect 4 0 1 0;
#X connect 5 0 1 0;
#X connect 6 0 0 0;
#X connect 7 0 0 0;
#X restore 445 85 pd gemwin;
#X msg 445 43 destroy;
#X text 451 25 Create window:;
#X msg 456 64 frame 60;
#X obj 37 206 gemhead;
#X obj 37 261 rectangle 1 1;
#X obj 136 262 print;
#X listbox 136 233 20 0 0 0 - - - 0;
#X connect 2 0 1 0;
#X connect 4 0 13 0;
#X connect 4 1 15 0;
#X connect 8 0 9 0;
#X connect 9 0 8 0;
#X connect 11 0 8 0;
#X connect 12 0 4 0;
#X connect 15 0 14 0;
#X coords 0 0 0.5 0.5 0 0 0;
